<?xml version="1.0" encoding="utf-8"?>
<!-- Generator: Adobe Illustrator 26.0.1, SVG Export Plug-In . SVG Version: 6.00 Build 0)  -->
<svg version="1.1" xmlns="http://www.w3.org/2000/svg" xmlns:xlink="http://www.w3.org/1999/xlink" x="0px" y="0px"
	 viewBox="0 0 458.72 416.23" style="enable-background:new 0 0 458.72 416.23;" xml:space="preserve">
<style type="text/css">
	.st0{fill:#E8E1FF;}
	.st1{fill:#D2BFFF;}
	.st2{fill:#F4F0FF;}
	.st3{fill:#B7A5EF;}
	.st4{fill:#363C89;}
	.st5{fill:#D8702A;}
	.st6{fill:#FFBB8E;}
	.st7{fill:#ED7C2A;}
	.st8{fill:#EAA27A;}
	.st9{fill:#4B4DF6;}
	.st10{fill:#E28E60;}
	.st11{fill:#241F3F;}
	.st12{fill:#737AFF;}
	.st13{fill:#FFFFFF;}
	.st14{fill:#FFC278;}
	.st15{fill:#FFB583;}
	.st16{fill:#A4ADFF;}
</style>
<g id="BACKGROUND">
</g>
<g id="OBJECTS">
	<g>
		<g>
			<g>
				<g>
					<path class="st0" d="M19.18,278.29c6.71-19.67,24.96-33.09,45.68-39.38c5.39-1.64,11.17-2.38,16.02-5.18
						c11.59-6.69,15.12-21.53,15.45-34.54c1.84-72.75,74.42-82.59,88.35-81.3c55.27,5.11,47.83,48.04,80.13,72
						c20.87,15.48,53.59-9.09,76.67,2.97c19.59,10.23,19.52,39.2,37.44,51.95c12.85,9.15,22.78-3.48,44.67,16.03
						c28.16,25.1,35.75,94.3-3.26,133.92l-363.14,1.55C43.81,394.06-7.19,355.62,19.18,278.29z"/>
				</g>
				<g>
					<g>
						<path class="st1" d="M332.92,362.56c11.17-18.8,24.08-36.57,38.51-53.01c2.17,6.97,5.85,13.46,10.73,18.89
							c2.11-6.58-6.67-16.4-3.66-22.61c1.26-2.6,45.95-27.55,80.23-33.45c-2.04,25.09-7.02,49.22-18.3,74.39
							c-4.43-2.58-12.07-1.88-16.5-4.46c3.07,6.95,8.87,9.96,11.03,14.07c-17.37,19.5-42.53,40.26-50.71,43.24
							c-17.1,6.23-35.64,2.01-52.3-3.56c-8.89-2.97-11.08-3.55-8.4-12.83C325.64,376.02,329.09,369,332.92,362.56z"/>
					</g>
					<g>
						<g>
							<path class="st2" d="M344.87,398.31c25.2-41.03,57.81-77.19,96.05-106.45c1.01-0.77,0.01-2.51-1.01-1.73
								c-38.53,29.48-71.38,65.83-96.77,107.17C342.46,398.4,344.19,399.41,344.87,398.31L344.87,398.31z"/>
						</g>
					</g>
					<g>
						<g>
							<path class="st2" d="M345.93,358c4.83,5.76,7.53,12.52,8.02,20.03c0.03,0.49,0.44,1.07,1,1c12.84-1.65,25.73-2.06,38.65-1.24
								c1.29,0.08,1.28-1.92,0-2c-11.74-0.75-23.11,0.13-34.81,0.77c-2.63,0.14-2.54,0.38-3.17-2.03c-0.63-2.39-0.94-4.74-1.81-7.08
								c-1.49-4.02-3.72-7.58-6.47-10.86C346.52,355.6,345.11,357.02,345.93,358L345.93,358z"/>
						</g>
					</g>
					<g>
						<g>
							<path class="st2" d="M366.43,332.84c3.96,6.79,6.44,14.07,7.39,21.88c0.06,0.53,0.41,1.01,1,1
								c10.53-0.22,21.02,0.25,31.49,1.4c1.28,0.14,1.27-1.86,0-2c-5.23-0.57-10.47-1.01-15.72-1.24c-2.63-0.12-5.25-0.19-7.88-0.21
								c-1.61-0.02-5.19,0.68-6.5-0.31c-1.84-1.38-2.13-8.06-2.95-10.5c-1.3-3.86-3.04-7.5-5.09-11.02
								C367.51,330.72,365.78,331.73,366.43,332.84L366.43,332.84z"/>
						</g>
					</g>
					<g>
						<g>
							<path class="st2" d="M392.78,308.72c2.61,5.91,4.24,12.01,4.92,18.43c0.07,0.63,0.59,1.16,1.27,0.96
								c11.74-3.41,23.65-6.08,35.73-8.02c1.27-0.2,0.73-2.13-0.53-1.93c-12.08,1.93-23.99,4.61-35.73,8.02
								c0.42,0.32,0.84,0.64,1.27,0.96c-0.72-6.79-2.43-13.2-5.19-19.44C393.99,306.53,392.26,307.55,392.78,308.72L392.78,308.72z"
								/>
						</g>
					</g>
				</g>
				<g>
					<g>
						<path class="st3" d="M297.63,232c1.26-13.84,3.2-27.98,9.67-40.28c6.47-12.31,18.34-22.6,32.2-23.62
							c13.62-1.01,29.03,7.33,36.24,18.93c7.21,11.6,6.85,25.91,5.36,39.48c-1.58,14.4-6.59,28.17-11.55,41.78
							c-14.64,40.11-28.16,69.19-52.81,104.06c-25.37,35.88-54.49,30.95-40.31,12.68C304.63,337,292.75,285.48,297.63,232z"/>
					</g>
					<g>
						<g>
							<path class="st2" d="M285.62,401.74c14.66-21.79,24.59-47.05,33.44-71.63c11.2-31.09,20.28-63.15,25.96-95.73
								c2.72-15.63,4.67-31.46,4.72-47.34c0-1.29-2-1.29-2,0c-0.1,30.24-6.44,60.48-14.12,89.61c-7.97,30.22-18,60.11-30.8,88.65
								c-5.47,12.21-11.45,24.32-18.93,35.44C283.17,401.8,284.9,402.8,285.62,401.74L285.62,401.74z"/>
						</g>
					</g>
					<g>
						<g>
							<path class="st2" d="M319.75,192.93c7.37,13.23,14.24,26.89,24.63,38.08c0.3,0.33,0.84,0.37,1.21,0.16
								c10.43-5.91,21.92-9.6,31.77-16.62c1.04-0.74,0.04-2.48-1.01-1.73c-5.05,3.6-10.6,6.44-16.16,9.16
								c-4.33,2.11-9.18,5.25-13.83,6.52c-1.72,0.47-0.43,0.64-1.74-0.15c-1.08-0.65-2.53-2.91-3.31-3.89
								c-2.82-3.52-5.33-7.28-7.71-11.11c-4.33-6.98-8.14-14.26-12.14-21.43C320.85,190.8,319.13,191.81,319.75,192.93
								L319.75,192.93z"/>
						</g>
					</g>
					<g>
						<g>
							<path class="st2" d="M305.54,234.29c10.77,8.35,19.42,19.38,28.92,29.08c0.66,0.68,1.71,2.19,2.7,2.45
								c2.37,0.62,7.42-3.37,9.43-4.49c9.2-5.14,17.68-11.25,25.18-18.67c0.92-0.91-0.5-2.32-1.41-1.41
								c-6.98,6.9-14.81,12.66-23.32,17.53c-2.05,1.18-7.95,5.4-9.67,4.68c-1.41-0.6-3.11-3.18-4.15-4.28
								c-8.42-8.92-16.54-18.76-26.27-26.3C305.95,232.1,304.52,233.5,305.54,234.29L305.54,234.29z"/>
						</g>
					</g>
				</g>
				<g>
					<g>
						<path class="st3" d="M78.97,385.15c-13.58-5.24-42.25-17.49-34.03-26.23c3.76-2.44,8.43-3.43,12.85-2.71
							c2.4-2.96-2.2-6.47-5.8-7.74c-9.59-3.39-46.37-15-36.5-25.44c3.23-3.88,16.42-2.64,15.8-3.21C20.49,310.02,14.44,304,5.98,291
							c-5.36-8.24-9.95-24.61-0.61-27.51c5.99-0.13,10.79,4.83,14.17,9.78c3.39,4.94,8.99,13.85,15.03,19.54
							c-0.28-4.43-2.53-27.89,10.17-22.54c7.94,3.35,11.52,26.76,18.25,35.37c0.9,1.15,2.36,2.4,3.63,1.69
							c0.79-0.44,1.04-1.42,1.43-2.24c2.31-4.91,10.27-3.82,13.51,0.53c3.24,4.35,3.34,10.17,4.02,15.55
							c0.68,5.38,2.63,11.38,7.61,13.54c0.71-3.11,1.5-6.37,3.65-8.73c2.15-2.35,6.15-3.35,8.55-1.25c1.16,1.01,1.73,2.52,2.25,3.97
							c8.41,23.65,25.53,53.51,35.29,75.71C141.02,402.93,89.59,389.25,78.97,385.15z"/>
					</g>
					<g>
						<g>
							<path class="st2" d="M10.67,282.35c37.25,47.41,84.59,85.49,131.56,122.76c1,0.79,2.42-0.61,1.41-1.41
								c-46.97-37.27-94.31-75.35-131.56-122.76C11.29,279.92,9.88,281.35,10.67,282.35L10.67,282.35z"/>
						</g>
					</g>
					<g>
						<g>
							<path class="st2" d="M25.8,329.64c10.47,2.44,21.37,3.67,32.12,3.7c0.6,0,1.2-0.65,0.96-1.27
								c-4.92-12.67-10.42-26.03-12.42-39.53c-0.19-1.27-2.12-0.73-1.93,0.53c2,13.5,7.49,26.86,12.42,39.53
								c0.32-0.42,0.64-0.84,0.96-1.27c-10.58-0.03-21.29-1.23-31.59-3.63C25.08,327.42,24.54,329.35,25.8,329.64L25.8,329.64z"/>
						</g>
					</g>
					<g>
						<g>
							<path class="st2" d="M56.01,365.8c6.79,0.73,13.55,1.71,20.38,2.04c5.96,0.29,12.8,0.59,18.28-2.18
								c0.49-0.25,0.61-0.92,0.36-1.37c-8.21-14.77-12.22-31.66-18.94-47.12c-0.51-1.18-2.24-0.16-1.73,1.01
								c6.73,15.47,10.72,32.33,18.94,47.12c0.12-0.46,0.24-0.91,0.36-1.37c-5.83,2.94-13.56,2.18-19.86,1.75
								c-5.96-0.41-11.86-1.25-17.8-1.89C54.73,363.66,54.74,365.66,56.01,365.8L56.01,365.8z"/>
						</g>
					</g>
				</g>
				<g>
					<g>
						<path class="st1" d="M166.18,358.96c-11.02-6.98-21.87-12.05-32.89-19.02c-14.67-9.29-106.12-61.64-99.18-138.8
							c1.23-13.66,8.94-29.97,22.23-33.36c39.33-10.03,39.25,39.69,41.32,50.43c4.74,24.58,17.59,47.01,33.45,66.38
							c15.86,19.37,34.75,35.99,53.44,52.65c4.08,3.63,8.52,8.15,7.98,13.58c-0.2,1.98-1.06,3.83-1.91,5.63
							C185.73,366.8,173.79,363.78,166.18,358.96z"/>
					</g>
					<g>
						<g>
							<path class="st2" d="M57.83,180.49c-1.18,15.09,0.62,28.8,5.87,42.94c4.27,11.51,9.51,22.65,15.62,33.3
								c14.17,24.73,32.92,46.72,54.63,65.14c13.99,11.87,29.18,22.24,45.14,31.28c1.12,0.64,2.13-1.09,1.01-1.73
								c-49.43-27.99-91.12-70.1-112.47-123.32c-2.5-6.23-5.05-12.66-6.5-19.23c-2.05-9.26-2.04-18.97-1.31-28.38
								C59.93,179.2,57.93,179.21,57.83,180.49L57.83,180.49z"/>
						</g>
					</g>
					<g>
						<g>
							<path class="st2" d="M39.85,199.67c6.92,6.88,14.01,13.21,22.37,18.29c0.57,0.35,1.28,0.01,1.47-0.6
								c2.97-9.59,7.67-19.09,14.16-26.79c0.82-0.98-0.58-2.4-1.41-1.41c-6.73,7.98-11.59,17.72-14.68,27.67
								c0.49-0.2,0.98-0.4,1.47-0.6c-8.21-4.99-15.18-11.23-21.97-17.98C40.35,197.35,38.94,198.77,39.85,199.67L39.85,199.67z"/>
						</g>
					</g>
					<g>
						<g>
							<path class="st2" d="M44.75,234.83c6.2,3.01,12.32,6.2,18.51,9.25c2.91,1.43,5.82,2.88,8.79,4.18
								c1.12,0.49,2.7,1.5,3.97,1.35c0.43-0.05,0.85-0.27,0.96-0.73c2.49-10.35,5.14-20.79,8.89-30.75
								c0.45-1.21-1.48-1.73-1.93-0.53c-2.51,6.68-4.43,13.58-6.27,20.48c-0.71,2.66-1.4,5.33-2.06,8.01
								c-0.16,0.63-0.31,1.27-0.47,1.9c-0.04,0.15,1.06,0.13,0.14-0.54c-1.54-1.11-4.01-1.71-5.74-2.53
								c-2.8-1.33-5.59-2.71-8.36-4.09c-5.14-2.56-10.24-5.2-15.41-7.71C44.61,232.54,43.59,234.27,44.75,234.83L44.75,234.83z"/>
						</g>
					</g>
					<g>
						<g>
							<path class="st2" d="M58.77,267.25c11.1,4.8,22.54,9.18,34.32,12.01c0.52,0.13,1.09-0.16,1.23-0.7
								c2.65-9.91,3.78-20.08,4.45-30.29c0.08-1.29-1.92-1.28-2,0c-0.65,10.04-1.77,20.03-4.37,29.76c0.41-0.23,0.82-0.47,1.23-0.7
								c-11.6-2.79-22.9-7.08-33.84-11.81C58.61,265.02,57.59,266.74,58.77,267.25L58.77,267.25z"/>
						</g>
					</g>
				</g>
			</g>
			<g>
				<g>
					<g>
						<path class="st4" d="M53.62,312.83c-1.88-10.52-2.34-22.21,3.75-30.99c5.06-7.3,13.87-11.23,22.64-12.61
							c6.69-1.06,87.36-7.61,90.32-4.67c2.73,2.72,11.2,7.73,14.59,21.82c4.07,16.91,16.4,89.06,12.92,104.16
							c-9.63,2.4-101.65,2.86-115.97,2.99C81.29,388.18,56.68,329.97,53.62,312.83z"/>
					</g>
					<g>
						<g>
							<g>
								<g>
									<path class="st5" d="M210.28,241.66c22.33,5.08,31.12,51.85,34.51,63.21c3.72,12.42,9.03,24.36,15.78,35.43
										c3.39,5.57,7.23,12.52,3.93,18.14c-2.09,3.55-6.47,5.13-10.58,5.32c-8.19,0.38-16.09-3.74-21.94-9.49
										c-5.85-5.75-9.92-13.02-13.7-20.3c-11.17-21.55-17.73-37.86-22.83-61.59C195.17,271.09,193.05,237.74,210.28,241.66z"/>
								</g>
								<g>
									<path class="st6" d="M258.86,368.65c2.85,2.91,15.03,4.39,16.03,3.7c-1.06-6.34-7.29-2.74-8.06-7.63
										c1.9-1.32,4.14-0.92,6-0.92c1.62,0,3.13,1.44,3.82,3.18c1.04,2.63,0.65,3.45,1.06,6.25c0.4,2.76,3.2,4.78,3.21,3.02
										c0-3.23,0.01-8.23,0.01-11.47c0.8,2.88,1.36,11.97,5.24,11.11c0.94-4.35-1.07-8.18-1.09-12.63
										c1.1,3.78,1.09,12.63,4.96,11.38c0.16-4.06-1.35-8.16-1.19-12.22c0.87,3.58,2.25,11.34,4.39,10.09
										c0.65-3.91-0.42-8.04-1.26-11.91c-0.51-2.35-0.39-4.63-2.1-6.33c-1.05-1.04-15.89-3.92-22.04-3.56
										c-3.88,0.23-8.82-0.37-11.27,1.58C247.06,359.84,255.66,365.39,258.86,368.65z"/>
								</g>
							</g>
							<g>
								<path class="st7" d="M108.96,287.09c5.08,24.71,21.85,27.87,24.98,52.9c2.08,16.7-4.9,37.4-9.65,53.55
									c38.6,1.36,77.68,0.65,106.21-0.58c-1.04-23.39-10.39-54.46-8.22-77.77c1.24-13.37,4.19-25.77,2.3-39.06
									c-1.89-13.29-7.63-32.54-14.29-34.45c-12.94-3.72-23.82-7.07-38.73-8.69c-6.51-0.71-25.63-2.7-42.12-0.38
									c-10.36,1.46-19.14,3.4-22.86,4.91C81.97,247.49,104.56,265.71,108.96,287.09z"/>
							</g>
							<g>
								<path class="st8" d="M172.78,260.31c2.44-0.18,12.9-18.88,12.1-21.19c-2.81-6.43-8,0.06-9.68-4.7
									c-1.34-3.81,5.27-21.14,1.56-25.58c-2.22-2.65-24.36-10.86-28.29-3.37c-1.85,3.53-8.8,19.37-8.8,23.49
									C139.66,231.36,165.95,260.82,172.78,260.31z"/>
							</g>
							<g>
								<g>
									<path class="st6" d="M192.63,352.28c1.42,1.67,3.97,7.36,5.56,12.17c0.53,1.59,1.28,6.66,1.28,6.66
										c-4.02,1.94-5.45-7.82-6.83-10.57c-0.41,3.02,0.18,14.27-0.88,14.17c-3.87-0.96-3.46-9.42-3.17-13.47
										c-0.35,2.69-1.1,5.13-1.89,7.72c-0.81,2.65-1.76,5.14-3.02,6.43c-2.49-0.41-0.82-8.19-0.37-11.66
										c-1.42,5.97-5.07,12.16-5.07,12.16c-2.51,0-2.29-3.61-1.48-5.66c0.81-2.06,2.79-4.57,1.62-6.44
										c0.25,1.8-3.41,4.4-5.16,4.88c-1.75,0.49-6.65-1.21-8.4-1.71c-8.35-2.38-27.68-1.53-25.1-10.83
										c1.77-6.37,9.9-11.64,15.76-10.75c5.15,0.78,12.34,6.89,18.14,6.89C184,352.28,188.47,350.69,192.63,352.28z"/>
								</g>
								<g>
									<path class="st5" d="M165.5,347.45c-10.47-5.93-54.05-25.05-54.43-26.02c-1.46-3.68,19.27-38.44,20.58-48.7
										c1.3-10.26,1.11-19.23-6.23-26.52c-9.76-9.69-18.84-8.72-18.84-8.72c-6.78,2.37-8.57,4.61-12.03,7.97
										c-4.91,4.76-7.74,11.21-10.46,17.48c-8.01,18.52-16.06,37.15-20.8,56.77c-1.3,5.36-2.31,11.14-0.34,16.29
										c1.33,3.46,3.91,6.32,6.77,8.68c11.54,9.55,27.27,11.85,42.12,13.78c15.41,2,31.39,6.48,46.8,8.48
										C161.8,367.38,168.82,349.33,165.5,347.45z"/>
								</g>
							</g>
							<g>
								<path class="st5" d="M129.36,233.72c-0.01,4.1,3.24,7.99,4.95,11.71c2.89,6.29,5.78,12.59,8.67,18.88
									c3.7-4.84,7.4-9.69,11.1-14.53c5.24,5.79,11.82,10.37,19.07,13.26c3.44-4.45,6.88-8.9,10.33-13.35
									c1.4,4.19,3.26,8.23,5.53,12.02c2.01-9.83,3.73-21.03-2.29-29.05c-2.85-3.8-7.29-6.38-12.01-6.98
									c-1.81,6,2.26,12.2,2.22,18.46c-0.04,5.09-2.77,9.72-5.41,14.07c-3.45-2.18-6.77-4.56-9.94-7.13
									c-1.59-1.28-3.18-2.68-4-4.55c-0.7-1.6-0.78-3.45-1.7-4.93c-0.95-1.52-2.63-2.4-4.01-3.55c-5.64-4.76-9.23-14.03-9.23-19.26
									C138.29,218.79,129.39,225.87,129.36,233.72z"/>
							</g>
							<g>
								<g>
									<path class="st5" d="M173.16,267.76c5.55,26.02,10.73,52.48,9.17,79.22c-0.07,1.29,1.93,1.28,2,0
										c1.56-26.91-3.66-53.56-9.25-79.75C174.82,265.97,172.89,266.51,173.16,267.76L173.16,267.76z"/>
								</g>
							</g>
						</g>
						<g>
							<g>
								<path class="st9" d="M183.66,191.29c-0.67,4.14-0.45,8.63,1.85,12.14c2.3,3.5,7.12,5.55,10.88,3.7
									c4.84-2.37,5.3-9.01,4.71-14.36c-0.37-3.38-0.96-6.9-3-9.61C191.28,174.1,184.76,184.46,183.66,191.29z"/>
							</g>
							<g>
								<path class="st6" d="M151.26,209.25c4.17,8.52,12.3,15.31,21.69,16.67c3.72,0.54,7.74,0.17,10.84-1.95
									c2.07-1.42,3.59-3.52,4.93-5.64c5.99-9.48,9.46-20.53,9.97-31.74c0.4-8.84-1.65-18.79-8.99-23.73
									c-5.58-3.75-12.8-3.69-19.52-3.48c-3.46,0.1-7.05,0.24-10.14,1.82c-3.2,1.64-5.46,4.64-7.58,7.55
									C144.76,179.31,145.53,197.56,151.26,209.25z"/>
							</g>
							<g>
								<g>
									<path class="st10" d="M172.04,212.86c2.88,2.7,7.01,3.56,10.69,2.06c1.18-0.48,0.66-2.41-0.53-1.93
										c-3.03,1.23-6.34,0.71-8.74-1.55C172.51,210.56,171.1,211.98,172.04,212.86L172.04,212.86z"/>
								</g>
							</g>
							<g>
								<path class="st11" d="M167.6,173.33c0.57,1.09,0.59,2.38,0.92,3.57c0.73,2.55,3.08,4.56,5.72,4.87
									c2.63,0.31,5.39-1.09,6.69-3.4c0.46-0.81,0.77-1.75,1.48-2.35c1.6-1.35,4.1-0.2,5.49,1.36c1.39,1.57,2.27,4.03,4.32,4.48
									c5.89,1.3,7.25-2.82,8.16-6.63c0.89,2.68,7.08,1.69,8.97-0.41c1.88-2.1,1.59-5.53-0.04-7.84c-1.62-2.31-4.26-3.68-6.9-4.67
									c-0.97-0.36-1.98-0.7-2.75-1.39c-2.75-2.51-0.42-7.11-1.25-10.74c-0.93-4.05-6.35-6.02-10-4.03
									c-2.72,1.49-4.46,4.57-7.41,5.53c-0.09-0.68-9.58-4.37-9.69-1.83c0,0-4.05-2.82-10.43-1.21c-3.1,0.78-5.97,3.61-6,6.81
									c-2.89-0.61-3.47-0.55-6.3,0.29c-2.83,0.84-5.4,3.17-5.7,6.12c-0.11,1.05,0.07,2.14-0.17,3.17
									c-0.63,2.66-3.91,3.6-4.71,5.95c-1.15,3.43,0.36,6.56,0.84,10.19c0.79,5.94-0.44,11.13,7.17,10.66
									c5.05-0.31,9.06,2.17,10.77-1.97C157.59,187.9,162.3,163.11,167.6,173.33z"/>
							</g>
							<g>
								<path class="st9" d="M135.79,188.44c-0.67,4.14-0.12,9.63,2.18,13.13c2.3,3.5,7.12,5.55,10.88,3.7
									c4.84-2.37,5.3-9.01,4.71-14.36c-0.37-3.38-0.96-6.9-3-9.61C143.73,172.25,136.89,181.61,135.79,188.44z"/>
							</g>
							<g>
								<g>
									<path class="st9" d="M146.89,181.33c0.14-8.52,2.1-18.19,9.41-23.52c5.15-3.75,15.19-7.42,24.7-6.12
										c0,0-2.6-2.41-5.29-2.85c-7.78-1.27-15.69,0.97-22,5.62c-8.36,6.15-10.88,17.02-11.05,26.87
										C142.62,184.05,146.84,184.05,146.89,181.33L146.89,181.33z"/>
								</g>
							</g>
							<g>
								<g>
									<path class="st9" d="M144.63,198.04c1.68,10.54,10.63,19.84,21.41,20.82c1.28,0.12,1.27-1.88,0-2
										c-9.94-0.91-17.95-9.76-19.48-19.35C146.36,196.25,144.43,196.78,144.63,198.04L144.63,198.04z"/>
								</g>
							</g>
							<g>
								<path class="st9" d="M174.11,217.1c0,2.6-2.1,4.7-4.7,4.7c-2.6,0-4.7-2.1-4.7-4.7c0-2.6,2.1-4.7,4.7-4.7
									C172.01,212.4,174.11,214.5,174.11,217.1z"/>
							</g>
							<g>
								<path class="st10" d="M183.93,201.64c0.24,1.93,1.17,3.78,2.61,5.21c0.43,0.43,0.95,0.91,0.89,1.49c-0.1,1-1.62,1.18-2.7,1
									c-2.2-0.37-4.33-1.07-6.28-2.05c-0.17-0.09-0.35-0.18-0.48-0.31c-0.22-0.22-0.32-0.52-0.37-0.82
									c-0.29-1.73,0.61-3.42,1.18-5.09c0.63-1.89,0.44-11.22,3.66-10.53C186.05,191.33,183.66,199.5,183.93,201.64z"/>
							</g>
							<g>
								<path class="st12" d="M137.71,195.09c0.04,2.13,0.26,4.51,1.85,5.93c1.82,1.63,5.11,1.07,6.29-1.07
									c0.57-1.03,0.66-2.25,0.74-3.42c0.19-3.06,0.3-6.17-0.36-9.17c-0.55-2.5-2.06-5.21-4.6-5.53
									C137.59,181.31,137.67,192.7,137.71,195.09z"/>
							</g>
							<g>
								<path class="st11" d="M175.28,192.9c0,1.67-0.83,3.03-1.85,3.03s-1.85-1.36-1.85-3.03c0-1.67,0.83-3.03,1.85-3.03
									S175.28,191.22,175.28,192.9z"/>
							</g>
							<g>
								<ellipse class="st11" cx="190.9" cy="193.72" rx="1.85" ry="3.03"/>
							</g>
							<g>
								<g>
									<path class="st11" d="M168.51,186.79c1.53-1.56,3.67-2.01,5.72-1.28c1.21,0.44,1.74-1.5,0.53-1.93
										c-2.69-0.97-5.67-0.24-7.66,1.79C166.19,186.3,167.61,187.71,168.51,186.79L168.51,186.79z"/>
								</g>
							</g>
							<g>
								<g>
									<path class="st11" d="M189.81,186.29c1.54,0.15,2.93,0.72,4.19,1.6c1.05,0.74,2.05-0.99,1.01-1.73
										c-1.55-1.1-3.31-1.69-5.19-1.88C188.53,184.16,188.54,186.16,189.81,186.29L189.81,186.29z"/>
								</g>
							</g>
						</g>
					</g>
				</g>
				<g>
					<g>
						<g>
							<path class="st3" d="M434.71,403.35H37.03c-4.79,0-8.67-3.88-8.67-8.67v-0.99c0-4.79,3.88-8.67,8.67-8.67h397.68
								c4.79,0,8.67,3.88,8.67,8.67v0.99C443.38,399.47,439.5,403.35,434.71,403.35z"/>
						</g>
						<g>
							<path class="st1" d="M422.54,403.35H49.19v0.69c0,6.73,5.46,12.19,12.19,12.19h348.97c6.73,0,12.19-5.46,12.19-12.19V403.35z
								"/>
						</g>
					</g>
					<g>
						<g>
							<path class="st9" d="M363.88,346.98H223.79c-5.45,0-9.7-4.73-9.12-10.15l8.61-80.65c0.5-4.66,4.43-8.2,9.12-8.2h140.09
								c5.45,0,9.7,4.73,9.12,10.15L373,338.78C372.5,343.44,368.57,346.98,363.88,346.98z"/>
						</g>
						<g>
							<path class="st4" d="M369.16,346.98H229.08c-5.45,0-9.7-4.73-9.12-10.15l8.61-80.65c0.5-4.66,4.43-8.2,9.12-8.2h140.09
								c5.45,0,9.7,4.73,9.12,10.15l-8.61,80.65C377.79,343.44,373.85,346.98,369.16,346.98z"/>
						</g>
						<g>
							<path class="st9" d="M305.58,305.84h-9.24c-3.48,0-6.3,2.82-6.3,6.3v67.25h21.84v-67.25
								C311.88,308.66,309.06,305.84,305.58,305.84z"/>
						</g>
						<g>
							<rect x="264.67" y="379.39" class="st4" width="70.46" height="5.64"/>
						</g>
						<g>
							<rect x="190.9" y="379.39" class="st9" width="82.94" height="5.64"/>
						</g>
						<g>
							<path class="st9" d="M157.18,372.34h-7.84c-5.33,0-9.64,4.32-9.64,9.64c0,1.68,1.36,3.04,3.04,3.04h21.05
								c1.68,0,3.04-1.36,3.04-3.04C166.82,376.66,162.51,372.34,157.18,372.34z"/>
						</g>
					</g>
				</g>
			</g>
		</g>
		<g>
			<g>
				<path class="st1" d="M290.99,70.82c-0.83-5.51-4.26-10.31-5.54-15.74c-2.52-10.66,3.59-21.7,2.26-32.58
					c-1.83-14.97-18.96-25.25-33.66-21.86c-6.11,1.41-9.93,2.72-15.78,1.46c-17.2-3.71-29.84,4.43-33.28,13.76
					c-8.27,22.47,4.27,26.05,7.5,44.87c1.36,7.94-11,20.95,4.69,39.47c5.29,6.25,13.49,9.9,21.65,11.34
					c-1.75,3.94-4.21,8.46-7.02,10.69c0,0,11.19-3.11,18.03-9.74C269.46,112.78,296.29,106.05,290.99,70.82z"/>
			</g>
			<g>
				<g>
					<path class="st9" d="M263.33,75.19l-5.28-6.56c-1.5-1.86-4.22-2.16-6.09-0.66l-1.59,1.28c-0.93,0.75-2.3,0.6-3.05-0.33
						l-6.55-8.14l-0.78-0.97l-6.55-8.14c-0.75-0.93-0.6-2.3,0.33-3.05l1.59-1.28c1.86-1.5,2.16-4.22,0.66-6.09l-5.28-6.56
						c-1.5-1.86-4.22-2.16-6.09-0.66l-1.74,1.4c-4.53,3.64-5.24,10.27-1.6,14.8l4.11,5.11l7.91,9.83l0.78,0.97l7.91,9.83l4.11,5.11
						c3.64,4.53,10.27,5.24,14.8,1.6l1.74-1.4C264.53,79.78,264.82,77.06,263.33,75.19z"/>
				</g>
				<g>
					<path class="st13" d="M257.19,60.23c-0.06,0-0.12,0-0.18-0.02c-0.54-0.1-0.91-0.62-0.81-1.16c0.74-4.14,0.11-7.47-1.86-9.91
						c-3.36-4.15-9.61-4.42-9.67-4.42c-0.55-0.02-0.98-0.48-0.97-1.03c0.02-0.55,0.53-0.99,1.03-0.97c0.29,0.01,7.2,0.29,11.15,5.15
						c2.36,2.91,3.12,6.78,2.28,11.53C258.09,59.89,257.67,60.23,257.19,60.23z"/>
				</g>
				<g>
					<path class="st13" d="M263.48,59.9c-0.03,0-0.06,0-0.09,0c-0.55-0.05-0.95-0.54-0.9-1.09c1.68-17.86-15.49-20.07-16.22-20.16
						c-0.55-0.06-0.94-0.56-0.88-1.11c0.06-0.55,0.57-0.94,1.11-0.88c0.2,0.02,19.85,2.5,17.98,22.33
						C264.43,59.51,263.99,59.9,263.48,59.9z"/>
				</g>
				<g>
					<path class="st13" d="M269.71,58.83c-0.55,0-1-0.44-1-0.99c-0.13-20.42-19.35-24.88-20.16-25.06
						c-0.54-0.12-0.88-0.65-0.76-1.19c0.12-0.54,0.66-0.88,1.19-0.76c0.22,0.05,21.59,4.96,21.74,27
						C270.71,58.37,270.27,58.82,269.71,58.83C269.71,58.83,269.71,58.83,269.71,58.83z"/>
				</g>
			</g>
		</g>
		<g>
			<g>
				<path class="st14" d="M446.26,74.06c-5.65-6.01-14.32-7.78-21.76-11.34c-10.87-5.21-19.26-14.39-26.98-23.65
					c-8.4-10.09-18.99-22.91-33.25-23.11c-14.89-0.21-29.94,8.98-39.35,19.92c-10.64,12.37-16.34,28.4-18.53,44.57
					c-1.62,11.95-1.34,24.6,3.94,35.44c1.34,2.76,3.07,5.36,5.09,7.71c-2.33,4.17-5.81,9.22-9.9,11.5c0,0,10.94-0.31,17.94-4.6
					c4.63,2.86,9.91,4.49,15.37,4.23c9.05-0.43,18.04-5.75,26.71-3.13c4.33,1.31,7.83,4.43,11.47,7.11
					c13.79,10.15,32.78,14.56,48.41,7.58c18.33-8.19,27.49-29.73,27.63-49.8C453.1,88.48,451.74,79.9,446.26,74.06z"/>
			</g>
			<g>
				<g>
					<rect x="337.18" y="65.26" class="st13" width="75.39" height="54.78"/>
				</g>
				<g>
					<g>
						<path class="st9" d="M343.46,71.05c-0.83,0-1.5-0.67-1.5-1.5v-7.28c0-0.83,0.67-1.5,1.5-1.5c0.83,0,1.5,0.67,1.5,1.5v7.28
							C344.96,70.38,344.29,71.05,343.46,71.05z"/>
					</g>
					<g>
						<path class="st9" d="M352.44,71.05c-0.83,0-1.5-0.67-1.5-1.5v-7.28c0-0.83,0.67-1.5,1.5-1.5c0.83,0,1.5,0.67,1.5,1.5v7.28
							C353.94,70.38,353.27,71.05,352.44,71.05z"/>
					</g>
					<g>
						<path class="st9" d="M361.41,71.05c-0.83,0-1.5-0.67-1.5-1.5v-7.28c0-0.83,0.67-1.5,1.5-1.5c0.83,0,1.5,0.67,1.5,1.5v7.28
							C362.91,70.38,362.24,71.05,361.41,71.05z"/>
					</g>
					<g>
						<path class="st9" d="M370.39,71.05c-0.83,0-1.5-0.67-1.5-1.5v-7.28c0-0.83,0.67-1.5,1.5-1.5c0.83,0,1.5,0.67,1.5,1.5v7.28
							C371.89,70.38,371.22,71.05,370.39,71.05z"/>
					</g>
					<g>
						<path class="st9" d="M379.36,71.05c-0.83,0-1.5-0.67-1.5-1.5v-7.28c0-0.83,0.67-1.5,1.5-1.5c0.83,0,1.5,0.67,1.5,1.5v7.28
							C380.86,70.38,380.19,71.05,379.36,71.05z"/>
					</g>
					<g>
						<path class="st9" d="M388.34,71.05c-0.83,0-1.5-0.67-1.5-1.5v-7.28c0-0.83,0.67-1.5,1.5-1.5c0.83,0,1.5,0.67,1.5,1.5v7.28
							C389.84,70.38,389.17,71.05,388.34,71.05z"/>
					</g>
					<g>
						<path class="st9" d="M397.31,71.05c-0.83,0-1.5-0.67-1.5-1.5v-7.28c0-0.83,0.67-1.5,1.5-1.5s1.5,0.67,1.5,1.5v7.28
							C398.81,70.38,398.14,71.05,397.31,71.05z"/>
					</g>
					<g>
						<path class="st9" d="M406.29,71.05c-0.83,0-1.5-0.67-1.5-1.5v-7.28c0-0.83,0.67-1.5,1.5-1.5c0.83,0,1.5,0.67,1.5,1.5v7.28
							C407.79,70.38,407.11,71.05,406.29,71.05z"/>
					</g>
				</g>
				<g>
					<g>
						<rect x="358.66" y="77.78" class="st1" width="7.66" height="7.66"/>
					</g>
					<g>
						<rect x="370.66" y="77.78" class="st1" width="7.66" height="7.66"/>
					</g>
					<g>
						<rect x="382.67" y="77.78" class="st1" width="7.66" height="7.66"/>
					</g>
					<g>
						<rect x="394.68" y="77.78" class="st14" width="7.66" height="7.66"/>
					</g>
				</g>
				<g>
					<g>
						<rect x="346.65" y="88.83" class="st14" width="7.66" height="7.66"/>
					</g>
					<g>
						<rect x="358.66" y="88.83" class="st1" width="7.66" height="7.66"/>
					</g>
					<g>
						<rect x="370.66" y="88.83" class="st1" width="7.66" height="7.66"/>
					</g>
					<g>
						<rect x="382.67" y="88.83" class="st1" width="7.66" height="7.66"/>
					</g>
					<g>
						<rect x="394.68" y="88.83" class="st14" width="7.66" height="7.66"/>
					</g>
				</g>
				<g>
					<g>
						<rect x="346.65" y="99.87" class="st14" width="7.66" height="7.66"/>
					</g>
					<g>
						<rect x="358.66" y="99.87" class="st1" width="7.66" height="7.66"/>
					</g>
					<g>
						<rect x="370.66" y="99.87" class="st1" width="7.66" height="7.66"/>
					</g>
					<g>
						<rect x="382.67" y="99.87" class="st1" width="7.66" height="7.66"/>
					</g>
				</g>
			</g>
		</g>
		<g>
			<g>
				<path class="st15" d="M64.54,60.44c-20.08,14.62-44.67-0.1-57.88,28.25c-5.45,11.7-3.29,23.08,2.19,35.59
					c6.37,14.53,15.41,20.25,28.49,20.91c7.55,0.38,13.9-2.9,21.24-7.4c5.34,3.26,12.55,6.71,19.23,6.75c0,0-5.84-4.23-7.7-13.82
					c2.78-1.61,5.76-3.23,9.02-4.78c20.41-9.69,27.69-0.95,40.01-15.86C139.28,85.69,106.39,29.97,64.54,60.44z"/>
			</g>
			<g>
				<g>
					<path class="st13" d="M86.42,74.12l7.83,27.84c0.34,1.21,0.08,2.44-0.59,3.4c-0.51,0.72-1.27,1.29-2.18,1.54l-50.35,14.17
						c-0.91,0.26-1.85,0.18-2.67-0.18c-1.07-0.46-1.94-1.38-2.28-2.6l-7.83-27.84c-0.34-1.21-0.09-2.45,0.59-3.4
						c0.51-0.72,1.27-1.27,2.19-1.53l50.35-14.17c0.91-0.26,1.85-0.17,2.67,0.17C85.22,71.99,86.08,72.9,86.42,74.12z"/>
				</g>
				<g>
					<path class="st16" d="M69.79,93.82l23.88,11.54c-0.51,0.72-1.27,1.29-2.18,1.54l-2.52,0.71l-21.4-10.34l-3.17,4.93
						c-0.29,0.43-0.7,0.73-1.17,0.86c-0.46,0.13-0.97,0.09-1.43-0.13l-5.29-2.55l-12.85,19.98l-5.19,0.53l14.35-22.3L28.94,87.05
						c0.51-0.72,1.27-1.27,2.19-1.53l2.52-0.71l28.29,13.68l17.02-26.43l2.52-0.71c0.91-0.26,1.85-0.17,2.67,0.17L69.79,93.82z"/>
				</g>
			</g>
		</g>
		<g>
			<g>
				<path class="st16" d="M188.48,54.97c-2.11-3.51-5.63-6.41-6.16-10.46c-0.26-1.96-0.25-4.07,0.53-5.89
					c4.86-11.32,1.39-24.11-8.74-31.69c-8.05-6.02-18.88-7.44-27.77-3.36c-13.45,6.18-21.16,18.09-14.49,37.19
					c1.87,5.34,4.36,10.67,4.38,16.33c0.01,4.37-3.09,15.09,6.16,24.89c5.58,5.9,12.61,8.35,19.93,7.92
					c0.9,2.7,1.79,7.39,0.79,14.28c0,0,8.92-7.47,9.62-16.68C194.5,80,191.73,60.37,188.48,54.97z"/>
			</g>
			<g>
				<g>
					<path class="st13" d="M156.33,62.23L156.33,62.23c-1.97,0-3.57,1.6-3.57,3.57c0,1.97,1.6,3.57,3.57,3.57h0
						c1.97,0,3.57-1.6,3.57-3.57C159.9,63.83,158.31,62.23,156.33,62.23z"/>
				</g>
				<g>
					<path class="st13" d="M165.95,29.82c-2.42-2.43-5.68-3.64-9.78-3.64c-3.9,0-7.04,1.2-9.44,3.6c-1.14,1.14-2.03,2.4-2.67,3.77
						c-1.09,2.33,0.3,5.18,2.61,5.51l0,0c1.45,0.2,2.86-0.68,3.47-2.19c0.46-1.15,1.05-2.07,1.79-2.78
						c1.22-1.17,2.74-1.75,4.55-1.75c1.88,0,3.38,0.56,4.49,1.68c1.11,1.12,1.66,2.47,1.66,4.04c0,1.13-0.31,2.17-0.94,3.11
						c-0.41,0.59-1.65,1.85-3.74,3.77c-2.08,1.92-3.47,3.64-4.17,5.18c-0.3,0.67-0.53,2.24-0.7,3.79c-0.23,2.13,1.26,4,3.15,4l0,0
						c1.56,0,2.91-1.3,3.13-3.05c0.08-0.67,0.21-1.19,0.37-1.58c0.36-0.86,1.3-2,2.81-3.42c2.91-2.74,4.82-4.91,5.71-6.5
						c0.89-1.59,1.33-3.28,1.33-5.06C169.59,35.07,168.38,32.24,165.95,29.82z"/>
				</g>
			</g>
		</g>
	</g>
</g>
</svg>
